<svg width="27" height="27" viewBox="0 0 27 27" fill="none" xmlns="http://www.w3.org/2000/svg"><g clip-path="url(#clip0)"><path d="M27.0657 13.5001C27.0657 10.8115 26.2747 8.18327 24.7928 5.94777C23.3109 3.71227 21.2047 1.96991 18.7404 0.941026C16.2761 -0.0878618 13.5645 -0.357064 10.9484 0.167458C8.3323 0.691981 5.92927 1.98667 4.04319 3.8878C2.1571 5.78894 0.872657 8.21114 0.352287 10.8481C-0.168084 13.485 0.0989907 16.2183 1.11973 18.7023C2.14048 21.1862 3.86904 23.3093 6.08684 24.803C8.30465 26.2967 10.9121 27.094 13.5794 27.094C15.3507 27.0947 17.1047 26.7436 18.7412 26.0607C20.3777 25.3778 21.8647 24.3765 23.1172 23.114C24.3696 21.8516 25.363 20.3527 26.0405 18.7031C26.718 17.0535 27.0664 15.2855 27.0657 13.5001ZM3.12782 13.5001C3.12782 13.5001 5.65319 18.7248 13.5794 18.7248C21.5056 18.7248 24.031 13.5001 24.031 13.5001C24.031 16.2942 22.9298 18.9738 20.9698 20.9495C19.0097 22.9252 16.3513 24.0351 13.5794 24.0351C10.8075 24.0351 8.14908 22.9252 6.18902 20.9495C4.22897 18.9738 3.12782 16.2942 3.12782 13.5001Z" fill="#FC9E08"/></g></svg>
