<svg id="visual" viewBox="0 0 900 600" width="900" height="600" xmlns="http://www.w3.org/2000/svg" xmlns:xlink="http://www.w3.org/1999/xlink" version="1.1"><path d="M0 194L21.5 195.3C43 196.7 86 199.3 128.8 202.2C171.7 205 214.3 208 257.2 204C300 200 343 189 385.8 191.3C428.7 193.7 471.3 209.3 514.2 213C557 216.7 600 208.3 642.8 204C685.7 199.7 728.3 199.3 771.2 194.2C814 189 857 179 878.5 174L900 169L900 0L878.5 0C857 0 814 0 771.2 0C728.3 0 685.7 0 642.8 0C600 0 557 0 514.2 0C471.3 0 428.7 0 385.8 0C343 0 300 0 257.2 0C214.3 0 171.7 0 128.8 0C86 0 43 0 21.5 0L0 0Z" fill="#fa7268"></path><path d="M0 157L21.5 154.3C43 151.7 86 146.3 128.8 152.5C171.7 158.7 214.3 176.3 257.2 180.3C300 184.3 343 174.7 385.8 170C428.7 165.3 471.3 165.7 514.2 165.8C557 166 600 166 642.8 167.3C685.7 168.7 728.3 171.3 771.2 161.2C814 151 857 128 878.5 116.5L900 105L900 0L878.5 0C857 0 814 0 771.2 0C728.3 0 685.7 0 642.8 0C600 0 557 0 514.2 0C471.3 0 428.7 0 385.8 0C343 0 300 0 257.2 0C214.3 0 171.7 0 128.8 0C86 0 43 0 21.5 0L0 0Z" fill="#eb5967"></path><path d="M0 105L21.5 99.3C43 93.7 86 82.3 128.8 87.2C171.7 92 214.3 113 257.2 113C300 113 343 92 385.8 91.5C428.7 91 471.3 111 514.2 113.3C557 115.7 600 100.3 642.8 91C685.7 81.7 728.3 78.3 771.2 75.3C814 72.3 857 69.7 878.5 68.3L900 67L900 0L878.5 0C857 0 814 0 771.2 0C728.3 0 685.7 0 642.8 0C600 0 557 0 514.2 0C471.3 0 428.7 0 385.8 0C343 0 300 0 257.2 0C214.3 0 171.7 0 128.8 0C86 0 43 0 21.5 0L0 0Z" fill="#da3f67"></path><path d="M0 71L21.5 70.3C43 69.7 86 68.3 128.8 68.8C171.7 69.3 214.3 71.7 257.2 71.7C300 71.7 343 69.3 385.8 71.7C428.7 74 471.3 81 514.2 83.7C557 86.3 600 84.7 642.8 80.8C685.7 77 728.3 71 771.2 65C814 59 857 53 878.5 50L900 47L900 0L878.5 0C857 0 814 0 771.2 0C728.3 0 685.7 0 642.8 0C600 0 557 0 514.2 0C471.3 0 428.7 0 385.8 0C343 0 300 0 257.2 0C214.3 0 171.7 0 128.8 0C86 0 43 0 21.5 0L0 0Z" fill="#c62368"></path></svg>