<svg id="visual" viewBox="0 0 900 600" width="900" height="600" xmlns="http://www.w3.org/2000/svg" xmlns:xlink="http://www.w3.org/1999/xlink" version="1.1"><path d="M0 400L21.5 401.3C43 402.7 86 405.3 128.8 397.3C171.7 389.3 214.3 370.7 257.2 361.5C300 352.3 343 352.7 385.8 367.3C428.7 382 471.3 411 514.2 415C557 419 600 398 642.8 391.7C685.7 385.3 728.3 393.7 771.2 389.5C814 385.3 857 368.7 878.5 360.3L900 352L900 601L878.5 601C857 601 814 601 771.2 601C728.3 601 685.7 601 642.8 601C600 601 557 601 514.2 601C471.3 601 428.7 601 385.8 601C343 601 300 601 257.2 601C214.3 601 171.7 601 128.8 601C86 601 43 601 21.5 601L0 601Z" fill="#fa7268"></path><path d="M0 423L21.5 421.5C43 420 86 417 128.8 420.8C171.7 424.7 214.3 435.3 257.2 434.8C300 434.3 343 422.7 385.8 429.3C428.7 436 471.3 461 514.2 472C557 483 600 480 642.8 476.7C685.7 473.3 728.3 469.7 771.2 465.5C814 461.3 857 456.7 878.5 454.3L900 452L900 601L878.5 601C857 601 814 601 771.2 601C728.3 601 685.7 601 642.8 601C600 601 557 601 514.2 601C471.3 601 428.7 601 385.8 601C343 601 300 601 257.2 601C214.3 601 171.7 601 128.8 601C86 601 43 601 21.5 601L0 601Z" fill="#eb5967"></path><path d="M0 470L21.5 477.3C43 484.7 86 499.3 128.8 503.8C171.7 508.3 214.3 502.7 257.2 496.7C300 490.7 343 484.3 385.8 483.8C428.7 483.3 471.3 488.7 514.2 485.3C557 482 600 470 642.8 474.3C685.7 478.7 728.3 499.3 771.2 505.3C814 511.3 857 502.7 878.5 498.3L900 494L900 601L878.5 601C857 601 814 601 771.2 601C728.3 601 685.7 601 642.8 601C600 601 557 601 514.2 601C471.3 601 428.7 601 385.8 601C343 601 300 601 257.2 601C214.3 601 171.7 601 128.8 601C86 601 43 601 21.5 601L0 601Z" fill="#da3f67"></path><path d="M0 537L21.5 535.7C43 534.3 86 531.7 128.8 535.3C171.7 539 214.3 549 257.2 553.3C300 557.7 343 556.3 385.8 555.2C428.7 554 471.3 553 514.2 545.5C557 538 600 524 642.8 519.5C685.7 515 728.3 520 771.2 525.3C814 530.7 857 536.3 878.5 539.2L900 542L900 601L878.5 601C857 601 814 601 771.2 601C728.3 601 685.7 601 642.8 601C600 601 557 601 514.2 601C471.3 601 428.7 601 385.8 601C343 601 300 601 257.2 601C214.3 601 171.7 601 128.8 601C86 601 43 601 21.5 601L0 601Z" fill="#c62368"></path></svg>